<svg width="19" height="19" xmlns="http://www.w3.org/2000/svg" xmlns:xlink="http://www.w3.org/1999/xlink" xmlns:svgjs="http://svgjs.com/svgjs" viewBox="0.009 0 18.983 19" fill="#fff"><svg xmlns="http://www.w3.org/2000/svg" width="19" height="19" viewBox="2 2 18 18.017"><path paint-order="stroke fill markers" fill-rule="evenodd" d="M15.786 12.009c-2.12 3.04-2.871 3.907-2.746 5.667.125 1.76-.234 2.244-1.087 2.33-.854.087-2.458-.366-2.74-3.247-.121-1.246.793-3.7.793-3.7l-6.392-.005c-.905 0-1.614-.377-1.614-1.58 0-1.126 1.278-1.465 1.278-1.465s-.818-.312-.818-1.26c0-.959.852-1.391 1.412-1.391-.349-.17-.836-.494-.729-1.315.107-.82.708-1.119 1.3-1.296-.382-.23-.662-.868-.448-1.359C4.282 2.728 5.04 2 6.74 2h7.947c.602 0 1.05.268 1.143.598v9.044s0 .29-.045.367zM16.375 2H19.5v10.594h-3.125V2zm.5 0H20v10.594h-3.125V2z"/></svg></svg>