<svg width="19" height="19" xmlns="http://www.w3.org/2000/svg" xmlns:xlink="http://www.w3.org/1999/xlink" xmlns:svgjs="http://svgjs.com/svgjs" viewBox="0.009 0 18.983 19" fill="#fff"><svg xmlns="http://www.w3.org/2000/svg" width="19" height="19" viewBox="1 1.983 18 18.017"><path paint-order="stroke fill markers" fill-rule="evenodd" d="M5.214 9.991c2.12-3.04 2.871-3.907 2.746-5.667-.125-1.76.233-2.244 1.087-2.33.854-.088 2.458.366 2.74 3.247.121 1.246-.793 3.7-.793 3.7l6.392.004c.905 0 1.614.378 1.614 1.58 0 1.127-1.278 1.466-1.278 1.466s.818.312.818 1.26c0 .959-.852 1.391-1.412 1.391.349.17.836.494.729 1.315-.107.82-.708 1.119-1.3 1.296.382.23.662.868.448 1.359-.287.66-1.045 1.388-2.746 1.388H6.312c-.602 0-1.05-.268-1.143-.598v-9.044s0-.29.045-.367zM1.5 9.406h3.125V20H1.5V9.406zm-.5 0h3.125V20H1V9.406z"/></svg></svg>